<svg xmlns="http://www.w3.org/2000/svg" width="30.333" height="30.333" viewBox="0 0 30.333 30.333">
  <path id="Icon_material-account-circle" data-name="Icon material-account-circle" d="M18.167,3A15.167,15.167,0,1,0,33.333,18.167,15.172,15.172,0,0,0,18.167,3Zm0,4.55a4.55,4.55,0,1,1-4.55,4.55A4.544,4.544,0,0,1,18.167,7.55Zm0,21.537a10.921,10.921,0,0,1-9.1-4.884c.045-3.018,6.067-4.671,9.1-4.671,3.018,0,9.054,1.653,9.1,4.671a10.921,10.921,0,0,1-9.1,4.884Z" transform="translate(-3 -3)" fill="#020e27"/>
</svg>
